<?xml version="1.0" encoding="UTF-8" standalone="no"?>
<svg
   xmlns:dc="http://purl.org/dc/elements/1.1/"
   xmlns:cc="http://creativecommons.org/ns#"
   xmlns:rdf="http://www.w3.org/1999/02/22-rdf-syntax-ns#"
   xmlns:svg="http://www.w3.org/2000/svg"
   xmlns="http://www.w3.org/2000/svg"
   xmlns:sodipodi="http://sodipodi.sourceforge.net/DTD/sodipodi-0.dtd"
   xmlns:inkscape="http://www.inkscape.org/namespaces/inkscape"
   id="body_1"
   width="49"
   height="49"
   version="1.1"
   sodipodi:docname="medium.svg"
   inkscape:version="1.0.2-2 (e86c870879, 2021-01-15)">
  <metadata
     id="metadata42">
    <rdf:RDF>
      <cc:Work
         rdf:about="">
        <dc:format>image/svg+xml</dc:format>
        <dc:type
           rdf:resource="http://purl.org/dc/dcmitype/StillImage" />
      </cc:Work>
    </rdf:RDF>
  </metadata>
  <defs
     id="defs40" />
  <sodipodi:namedview
     pagecolor="#ffffff"
     bordercolor="#666666"
     borderopacity="1"
     objecttolerance="10"
     gridtolerance="10"
     guidetolerance="10"
     inkscape:pageopacity="0"
     inkscape:pageshadow="2"
     inkscape:window-width="1920"
     inkscape:window-height="1002"
     id="namedview38"
     showgrid="false"
     inkscape:zoom="17.142857"
     inkscape:cx="24.5"
     inkscape:cy="24.5"
     inkscape:window-x="-8"
     inkscape:window-y="-8"
     inkscape:window-maximized="1"
     inkscape:current-layer="g35" />
  <g
     transform="matrix(0.2512821 0 0 0.2512821 0 0)"
     id="g35">
    <g
       id="g27"
       transform="matrix(1 0 0 1 0 0)" />
    <g
       id="g31"
       transform="matrix(1 0 0 1 0 0)" />
    <path
       d="M46.53408 65.21575C 46.69684 63.60766 46.0836 62.01823 44.88282 60.93592L44.88282 60.93592L32.65126 46.20106L32.65126 44L70.63025 44L99.98599 108.381L125.7946 44L162 44L162 46.20106L151.542 56.2281C 150.6404 56.91535 150.1932 58.04489 150.38 59.16285L150.38 59.16285L150.38 132.8372C 150.1932 133.9551 150.6404 135.0847 151.542 135.7719L151.542 135.7719L161.7554 145.7989L161.7554 148L110.3828 148L110.3828 145.7989L120.9631 135.5273C 122.0028 134.4879 122.0028 134.1823 122.0028 132.5926L122.0028 132.5926L122.0028 73.04174L92.5859 147.7554L88.61064 147.7554L54.36228 73.04174L54.36228 123.1158C 54.07673 125.2211 54.77592 127.3406 56.25817 128.863L56.25817 128.863L70.01868 145.5544L70.01868 147.7554L31 147.7554L31 145.5544L44.76051 128.863C 46.23196 127.3381 46.89038 125.2045 46.53408 123.1158L46.53408 123.1158L46.53408 65.21575z"
       stroke="none"
       fill="#FFFFFF"
       fill-rule="nonzero"
       id="path33"
       transform="matrix(1 0 0 1 0 0)" />
  </g>
</svg>
