<?xml version="1.0" encoding="UTF-8"?>
<svg xmlns="http://www.w3.org/2000/svg" xmlns:xlink="http://www.w3.org/1999/xlink" width="25pt" height="25pt" viewBox="0 0 25 25" version="1.1">
<g id="surface1">
<path style=" stroke:none;fill-rule:nonzero;fill:rgb(100%,100%,100%);fill-opacity:1;" d="M 5.964844 8.359375 C 5.988281 8.15625 5.90625 7.949219 5.753906 7.8125 L 4.1875 5.921875 L 4.1875 5.640625 L 9.054688 5.640625 L 12.820312 13.894531 L 16.128906 5.640625 L 20.769531 5.640625 L 20.769531 5.921875 L 19.429688 7.207031 C 19.3125 7.296875 19.253906 7.441406 19.28125 7.585938 L 19.28125 17.03125 C 19.253906 17.171875 19.3125 17.320312 19.429688 17.40625 L 20.738281 18.691406 L 20.738281 18.972656 L 14.152344 18.972656 L 14.152344 18.691406 L 15.507812 17.375 C 15.640625 17.242188 15.640625 17.203125 15.640625 17 L 15.640625 9.363281 L 11.871094 18.941406 L 11.359375 18.941406 L 6.96875 9.363281 L 6.96875 15.785156 C 6.933594 16.054688 7.023438 16.324219 7.210938 16.519531 L 8.976562 18.660156 L 8.976562 18.941406 L 3.972656 18.941406 L 3.972656 18.660156 L 5.738281 16.519531 C 5.925781 16.324219 6.011719 16.050781 5.964844 15.785156 Z M 5.964844 8.359375 "/>
</g>
</svg>
